# xmcd
#
# Track frame offsets:
#  150
#  14577
#  30182
#  44982
#  61672
#  75870
#  95372
#  109675
#  128152
#  146440
#  163067
#  177497
#  193100
#  207902
#  224590
#  238787
#  258287
#  272592
#  291072
#  309357
#
# Disc length: 4346 seconds
#
# Revision: 2
# Processed by: cddbd v1.5.1PL2 Copyright (c) Steve Scherf et al.
# Submitted via: Collectorz.com_Music_Collector 6.11
#
DISCID=1c10f814
DTITLE=Various Artist - THM-C0607-JULY 2006
DYEAR=1900
DGENRE=Country
TTITLE0=Neal McCoy - Last Of A Dying Breed, The (Vocals)
TTITLE1=Kenny Chesney - Summertime (Vocals)
TTITLE2=Reba McEntire - Love Needs A Holiday (Vocals)
TTITLE3=Brad Paisley - World, The (Vocals)
TTITLE4=Sugarland - Down In Mississippi (Up To No Good) (Vocals)
TTITLE5=Tim McGraw - I've Got Friends That Do (Vocals)
TTITLE6=Megan Mullins - Ain't What It Used To Be (Vocals)
TTITLE7=Dixie Chicks - Not Ready To Make Nice (Vocals)
TTITLE8=Diamond Rio - God Only Cries (Vocals)
TTITLE9=Trent Willmon - On Again Tonight (Vocals)
TTITLE10=Neal McCoy - Last Of A Dying Breed, The
TTITLE11=Kenny Chesney - Summertime
TTITLE12=Reba McEntire - Love Needs A Holiday
TTITLE13=Brad Paisley - World, The
TTITLE14=Sugarland - Down In Mississippi (Up To No Good)
TTITLE15=Tim McGraw - I've Got Friends That Do
TTITLE16=Megan Mullins - Ain't What It Used To Be
TTITLE17=Dixie Chicks - Not Ready To Make Nice
TTITLE18=Diamond Rio - God Only Cries
TTITLE19=Trent Willmon - On Again Tonight
EXTD=
EXTT0=
EXTT1=
EXTT2=
EXTT3=
EXTT4=
EXTT5=
EXTT6=
EXTT7=
EXTT8=
EXTT9=
EXTT10=
EXTT11=
EXTT12=
EXTT13=
EXTT14=
EXTT15=
EXTT16=
EXTT17=
EXTT18=
EXTT19=
PLAYORDER=
